<mxfile host="app.diagrams.net" modified="2024-02-23T13:34:04.372Z" agent="Mozilla/5.0 (Macintosh; Intel Mac OS X 10_15_7) AppleWebKit/537.36 (KHTML, like Gecko) Chrome/122.0.0.0 Safari/537.36" etag="yMK47Avb30C_S26rPgrG" version="23.1.6" type="github">
  <diagram name="第 1 页" id="OsCdY0DCLk1nydXedrGl">
    <mxGraphModel dx="954" dy="640" grid="0" gridSize="10" guides="1" tooltips="1" connect="1" arrows="1" fold="1" page="0" pageScale="1" pageWidth="827" pageHeight="1169" math="0" shadow="0">
      <root>
        <mxCell id="0" />
        <mxCell id="1" parent="0" />
        <mxCell id="pcN8QvVQY5GdNeKG3i3B-1" value="微博数据" style="shape=cylinder3;whiteSpace=wrap;html=1;boundedLbl=1;backgroundOutline=1;size=15;fillColor=#ffe6cc;strokeColor=#d79b00;" vertex="1" parent="1">
          <mxGeometry x="185" y="359" width="92" height="65" as="geometry" />
        </mxCell>
        <mxCell id="pcN8QvVQY5GdNeKG3i3B-2" value="水利数据" style="shape=cylinder3;whiteSpace=wrap;html=1;boundedLbl=1;backgroundOutline=1;size=15;fillColor=#d5e8d4;strokeColor=#82b366;" vertex="1" parent="1">
          <mxGeometry x="306" y="359" width="92" height="65" as="geometry" />
        </mxCell>
        <mxCell id="pcN8QvVQY5GdNeKG3i3B-3" value="水利数据" style="shape=cylinder3;whiteSpace=wrap;html=1;boundedLbl=1;backgroundOutline=1;size=15;fillColor=#e1d5e7;strokeColor=#9673a6;" vertex="1" parent="1">
          <mxGeometry x="490" y="357" width="92" height="65" as="geometry" />
        </mxCell>
        <mxCell id="pcN8QvVQY5GdNeKG3i3B-4" value="&lt;font style=&quot;font-size: 18px;&quot;&gt;.......&lt;/font&gt;" style="text;html=1;align=center;verticalAlign=middle;whiteSpace=wrap;rounded=0;" vertex="1" parent="1">
          <mxGeometry x="414" y="376.5" width="60" height="30" as="geometry" />
        </mxCell>
        <mxCell id="pcN8QvVQY5GdNeKG3i3B-5" value="&lt;font style=&quot;font-size: 18px;&quot;&gt;数据处理层&lt;/font&gt;" style="rounded=1;whiteSpace=wrap;html=1;fillColor=#60a917;fontColor=#ffffff;strokeColor=#2D7600;" vertex="1" parent="1">
          <mxGeometry x="185" y="304" width="392" height="42" as="geometry" />
        </mxCell>
        <mxCell id="pcN8QvVQY5GdNeKG3i3B-6" value="&lt;font style=&quot;font-size: 14px;&quot;&gt;SOTA小模型&lt;/font&gt;" style="rounded=1;whiteSpace=wrap;html=1;fillColor=#d80073;fontColor=#ffffff;strokeColor=#A50040;" vertex="1" parent="1">
          <mxGeometry x="183" y="247" width="120" height="40" as="geometry" />
        </mxCell>
        <mxCell id="pcN8QvVQY5GdNeKG3i3B-7" value="&lt;font style=&quot;font-size: 14px;&quot;&gt;LLM&lt;/font&gt;" style="rounded=1;whiteSpace=wrap;html=1;fillColor=#a20025;fontColor=#ffffff;strokeColor=#6F0000;" vertex="1" parent="1">
          <mxGeometry x="317" y="247" width="120" height="40" as="geometry" />
        </mxCell>
        <mxCell id="pcN8QvVQY5GdNeKG3i3B-8" value="&lt;font style=&quot;font-size: 14px;&quot;&gt;融合LLM的模型&lt;/font&gt;" style="rounded=1;whiteSpace=wrap;html=1;fillColor=#1ba1e2;fontColor=#ffffff;strokeColor=#006EAF;" vertex="1" parent="1">
          <mxGeometry x="451" y="247" width="120" height="40" as="geometry" />
        </mxCell>
        <mxCell id="pcN8QvVQY5GdNeKG3i3B-9" value="&lt;font color=&quot;#ffffff&quot; style=&quot;font-size: 14px;&quot;&gt;UI与可视化展示层&lt;/font&gt;" style="rounded=1;whiteSpace=wrap;html=1;fillColor=#fa6800;fontColor=#000000;strokeColor=#C73500;" vertex="1" parent="1">
          <mxGeometry x="183" y="184" width="387" height="37" as="geometry" />
        </mxCell>
        <mxCell id="pcN8QvVQY5GdNeKG3i3B-11" value="&lt;font style=&quot;font-size: 14px;&quot;&gt;&lt;b&gt;数据源&lt;/b&gt;&lt;/font&gt;" style="text;html=1;align=center;verticalAlign=middle;resizable=0;points=[];autosize=1;strokeColor=none;fillColor=none;" vertex="1" parent="1">
          <mxGeometry x="61" y="379.5" width="60" height="29" as="geometry" />
        </mxCell>
        <mxCell id="pcN8QvVQY5GdNeKG3i3B-12" value="&lt;font style=&quot;font-size: 14px;&quot;&gt;&lt;b&gt;数据预处理层&lt;/b&gt;&lt;/font&gt;" style="text;html=1;align=center;verticalAlign=middle;resizable=0;points=[];autosize=1;strokeColor=none;fillColor=none;" vertex="1" parent="1">
          <mxGeometry x="22" y="311" width="102" height="29" as="geometry" />
        </mxCell>
        <mxCell id="pcN8QvVQY5GdNeKG3i3B-13" value="&lt;font style=&quot;font-size: 14px;&quot;&gt;&lt;b&gt;核心算法层&lt;/b&gt;&lt;/font&gt;" style="text;html=1;align=center;verticalAlign=middle;resizable=0;points=[];autosize=1;strokeColor=none;fillColor=none;" vertex="1" parent="1">
          <mxGeometry x="29" y="253" width="88" height="29" as="geometry" />
        </mxCell>
        <mxCell id="pcN8QvVQY5GdNeKG3i3B-14" value="&lt;font style=&quot;font-size: 14px;&quot;&gt;&lt;b&gt;系统展示层&lt;/b&gt;&lt;/font&gt;" style="text;html=1;align=center;verticalAlign=middle;resizable=0;points=[];autosize=1;strokeColor=none;fillColor=none;" vertex="1" parent="1">
          <mxGeometry x="35" y="188.5" width="88" height="29" as="geometry" />
        </mxCell>
      </root>
    </mxGraphModel>
  </diagram>
</mxfile>
